<svg viewBox="0 0 48 52" xmlns="http://www.w3.org/2000/svg" xmlns:xlink="http://www.w3.org/1999/xlink" title="Atletico Madrid Home 23/24">
                        <defs>
                            <path id="kit" d="M10.22 50.435c.079-8.326.118-13.766.118-16.32 0-2.553-.161-6.661-.484-12.324l-1.63 3.825c-1.213.21-2.806-.165-4.778-1.125-1.92-.933-3.059-1.912-3.418-2.937L0 21.469 4.725 9.66c.809-2.154 1.936-3.546 3.381-4.176l8.278-3.621c.72-.393 3.26-.588 7.617-.586 4.357.003 6.894.198 7.613.586l8.162 3.572c1.502.604 2.669 2.013 3.499 4.225L48 21.47c-.325 1.055-1.473 2.063-3.446 3.022-1.972.96-3.565 1.335-4.778 1.125l-1.63-3.825c-.323 5.467-.484 9.575-.484 12.325s.04 8.19.119 16.319c-.535.464-7.158 1.065-13.78 1.065-6.623 0-13.246-.6-13.78-1.065Z"></path>
                            
                        </defs>
                        <mask id="kitMask" fill="#fff">
                            <use xlink:href="#kit"></use>
                        </mask>
                        <g fill="none" fill-rule="evenodd">
                            
            <path fill="#ddd" d="M10.22 50.435c.079-8.326.118-13.766.118-16.32 0-2.553-.161-6.661-.484-12.324l-1.63 3.825c-1.213.21-2.806-.165-4.778-1.125-1.92-.933-3.059-1.912-3.418-2.937L0 21.469 4.725 9.66c.809-2.154 1.936-3.546 3.381-4.176l8.278-3.621c.72-.393 3.26-.588 7.617-.586 4.357.003 6.894.198 7.613.586l8.162 3.572c1.502.604 2.669 2.013 3.499 4.225L48 21.47c-.325 1.055-1.473 2.063-3.446 3.022-1.972.96-3.565 1.335-4.778 1.125l-1.63-3.825c-.323 5.467-.484 9.575-.484 12.325s.04 8.19.119 16.319c-.535.464-7.158 1.065-13.78 1.065-6.623 0-13.246-.6-13.78-1.065Z" coloured="" opacity="1" mask="url(#kitMask)" id="base"></path><path fill="#cf2533" fill-rule="evenodd" d="M26.5285476 1.30487937 26.527623 51.472092C25.8123429 51.487611 25.0877059 51.4970404 24.3617382 51.4994087L24.000546 51.5C23.1356322 51.5 22.2707184 51.4897549 21.419365 51.4709062L21.4199624 1.3034444C22.0829953 1.28795487 22.8088187 1.27929681 23.5974326 1.27712829L24.0005758 1.27712829C24.9251544 1.27770922 25.7678116 1.28695958 26.5285476 1.30487937ZM31.6293941 1.86912829 36.7373941 4.10412829 36.7389468 50.7309677C35.6549 50.9222912 33.8307422 51.1113772 31.63035 51.2541788L31.6293941 1.86912829ZM16.3073941 1.89512829 16.3072055 51.2500357 15.1728818 51.1690897C13.4710738 51.0371518 12.0767987 50.8789219 11.1993941 50.7197401L11.1993941 4.13012829 16.3073941 1.89512829Z" coloured="" opacity="1" mask="url(#kitMask)" id="vertical-stripe-11"></path><path fill="#cf2533" fill-rule="evenodd" d="M30.2990606,-0.5 L31.6139292,0.86290579 L31.677,0.89 L31.5968671,0.912541872 C31.5316206,1.17861032 31.4207871,1.45032548 31.2643667,1.72768735 C31.4081345,1.76984334 31.5249726,1.81489928 31.6139292,1.86290579 L39.7758433,5.4345938 C41.2783083,6.03937373 42.4446058,7.44786812 43.274736,9.66007698 L48,21.4685118 C47.6754097,22.5241513 46.5267953,23.531758 44.5541569,24.4913321 C42.5815184,25.4509062 40.9887472,25.8258129 39.7758433,25.6160522 L38.1463424,21.7912482 C38.1098249,22.4089307 38.0753706,23.0092712 38.0429795,23.5922698 L38.0894472,52.1208952 L9.68043146,52.1208952 L9.74115765,22.4121434 L9.716,22.113 L9.85365765,21.7912482 C10.1656842,27.2587363 10.3270772,31.2769778 10.3378368,33.8459728 L10.3384132,34.1156766 L10.3381798,34.4732508 C10.3348353,37.1584412 10.2955373,42.4789995 10.2202858,50.4349257 C10.7554932,50.899355 17.3780196,51.5 24.000546,51.5 L24.3617382,51.4994087 C30.8618793,51.4782034 37.25533,50.8909108 37.7808063,50.4349257 C37.7050234,42.6835002 37.6653695,37.3774743 37.6618447,34.5168481 L37.6615868,34.1156766 C37.6615868,31.6764597 37.7887177,28.1686574 38.0429795,23.5922698 L38.0412513,22.4121434 L38.782409,13.6152189 C37.3203415,10.0358496 36.1754379,7.95538028 35.3476983,7.37381095 C34.9916182,7.12362931 34.0134552,6.59738337 32.4132093,5.79507313 L31.8871899,5.53253535 C31.4316081,5.30610666 30.9329458,5.06055993 30.391203,4.79589519 C29.9520795,4.60376416 29.4334797,4.41221854 28.8354036,4.22125832 C30.0116769,3.34509006 30.8210809,2.51371374 31.2643667,1.72768735 C30.2391395,1.42973018 27.818193,1.27952695 24.0005758,1.27712829 L23.5974326,1.27747024 C19.9880317,1.28583027 17.6939626,1.43729579 16.7152251,1.7318668 C17.1567028,2.51070685 17.9571946,3.33473644 19.117579,4.20334481 C18.4754482,4.40037373 17.9005104,4.59782338 17.391206,4.79589519 C14.233056,6.41179955 12.5808909,7.2711048 12.4347107,7.37381095 C11.6069711,7.95538028 10.4620675,10.0358496 9,13.6152189 L9.716,22.113 L8.2241567,25.6160522 C7.01125281,25.8258129 5.41848163,25.4509062 3.44584315,24.4913321 C1.52651922,23.5576924 0.387279465,22.5785814 0.0281238815,21.553999 L1.13686838e-13,21.4685118 L4.72526396,9.66007698 C5.53354862,7.50608415 6.66054046,6.1140616 8.10623945,5.48400935 L16.3835008,1.86290579 C16.4686956,1.81646483 16.5792703,1.77278517 16.7152251,1.7318668 C16.5556716,1.44744094 16.442956,1.16953631 16.3779567,0.897542151 L16.3325465,0.885881383 L16.3835008,0.86290579 L17.7009394,-0.5 C20.0542672,0.0215379365 22.154146,0.282865363 24.0005758,0.283982281 C25.8380118,0.285093757 27.9375067,0.0237663306 30.2990606,-0.5 Z" coloured="" opacity="1" mask="url(#kitMask)" id="shoulder-01"></path><g fill="none" fill-rule="evenodd" id="collar-03"><path fill="#000" fill-opacity=".5" d="M30.75,2.18 C29.7749023,4.9032666 27.5249023,6.2648999 24,6.2648999 C20.4750977,6.2648999 18.2250977,4.9032666 17.25,2.18 L30.75,2.18 Z"></path><path fill="#cf2533" d="M30.4486804,0.4 L31.5001582,1.58466392 L31.692,1.67 L31.6990485,1.89423218 C29.1024722,2.61826803 26.5203857,2.98028596 23.9527893,2.98028596 C21.3851929,2.98028596 18.8509298,2.63393881 16.35,1.94124451 L16.343,1.845 L16.5331206,1.76290579 L17.8505592,0.4 C20.203887,0.921537936 22.3037658,1.18286536 24.1501956,1.18398228 C25.9876316,1.18509376 28.0871265,0.923766331 30.4486804,0.4 Z" coloured="" opacity="1"></path><path fill="#000" fill-opacity=".5" d="M30.4486804,0.4 L31.5001582,1.58466392 L31.692,1.67 L31.6990485,1.89423218 C29.1024722,2.61826803 26.5203857,2.98028596 23.9527893,2.98028596 C21.3851929,2.98028596 18.8509298,2.63393881 16.35,1.94124451 L16.343,1.845 L16.5331206,1.76290579 L17.8505592,0.4 C20.203887,0.921537936 22.3037658,1.18286536 24.1501956,1.18398228 C25.9876316,1.18509376 28.0871265,0.923766331 30.4486804,0.4 Z"></path><path fill="#cf2533" d="M30.4437289,0.4 L31.699,1.701 L31.6957612,1.83431122 C31.5537677,4.64845237 28.1727723,6.9 24.0227263,6.9 C19.8756383,6.9 16.4965049,4.65166085 16.35,1.84032777 L16.5281691,1.76290579 L17.8456077,0.4 L18.2233174,0.4813756 C18.0099312,0.856479063 17.8950485,1.25116377 17.8950485,1.65 C17.8950485,3.57326891 20.5664871,5.4 24.0727263,5.4 C27.5789655,5.4 30.2504041,3.57326891 30.2504041,1.65 C30.2504041,1.26076701 30.1409872,0.875488012 29.9373775,0.508504815 L30.4437289,0.4 Z" coloured="" opacity="1"></path><path fill="#000" fill-opacity=".5" d="M31.8415564,1.58 C31.8415564,4.79060313 28.3626159,7.03999025 24.0245,7.03999025 C19.7277272,7.03999025 16.2365265,4.63545577 16.2365265,1.78785812 L16.343,1.73485702 C16.4912222,4.60474766 19.7228934,6.88985702 24.0245,6.88985702 C28.3261066,6.88985702 31.699,4.54348023 31.6990485,1.58 L31.8415564,1.58 Z"></path></g><path d="M47.56 20.365 48 21.47c-.325 1.055-1.473 2.063-3.446 3.022-1.972.96-3.565 1.335-4.778 1.125l-.464-1.088.261-.038c1.596-.263 3.05-.728 4.364-1.398a13.078 13.078 0 0 0 3.622-2.727Zm-47.118.001a13.078 13.078 0 0 0 3.62 2.726c1.315.67 2.77 1.135 4.365 1.398l.26.038-.463 1.088c-1.213.21-2.806-.165-4.778-1.125-1.92-.933-3.059-1.912-3.418-2.937L0 21.469l.442-1.103Z" fill="#85151d" fill-rule="nonzero" coloured="" opacity="1" mask="url(#kitMask)" id="trim-01"></path><path fill="#1c4294" d="M31.063812,11.6 L31.385152,11.602984 C32.0881153,11.6170432 32.5902101,11.6816347 33.0828954,11.8147304 L33.3584071,11.8962073 L33.6156629,11.9831126 L34.3027849,12.2411068 L34.399917,12.6144352 C34.7578905,14.1036212 34.6894945,15.4106176 34.1901022,16.5306227 C33.6407232,17.7627348 32.6229074,18.7394827 31.1448108,19.4597222 L30.9805586,19.4597222 C29.5022114,18.7394895 28.4842673,17.7627408 27.9348856,16.5306227 C27.4396549,15.419951 27.3682671,14.1253915 27.7162103,12.6516269 L27.8222029,12.2411068 L28.4590623,12.0018343 L28.683453,11.9243192 L28.9859901,11.8318626 C29.2045989,11.7707588 29.4236396,11.7230391 29.6591577,11.6871981 L30.0002649,11.6447286 L30.3582537,11.6176474 L30.6293297,11.6061574 C30.7645262,11.6020653 30.9090748,11.6 31.063812,11.6 Z" coloured="" opacity="1" mask="url(#kitMask)" id="badge-06"></path>
        
                            <path fill-opacity="0.15" fill="#000000" fill-rule="nonzero" d="m10.234 48.926-1.257-.15a120.817 120.817 0 0 0 28.788.145l.016 1.514a.67.67 0 0 1-.206.101l-.168.052-.21.052-.25.052-.288.053-.324.052-.752.103-.879.1-.734.072-.791.07-.845.064-1.197.079-1.267.07-.988.044-.674.025-1.376.041-.698.015-1.411.018L24 51.5l-1.076-.005-1.057-.015-1.046-.024-1.029-.032-1.006-.04-.656-.03-1.267-.069-1.197-.079-.844-.065-.792-.069-.734-.072-.878-.1-.577-.077-.5-.078-.288-.053-.25-.052-.21-.052-.168-.052a.67.67 0 0 1-.206-.101l.014-1.509Zm37.19-28.899.144.361a13.074 13.074 0 0 1-3.592 2.696c-1.314.67-2.769 1.136-4.364 1.398l-.3.045-.142-.331c1.555-.22 2.974-.632 4.258-1.234l.389-.19a12.714 12.714 0 0 0 3.426-2.55l.18-.195Zm-46.99.357.144-.361-.112-.121a12.762 12.762 0 0 0 3.724 2.87c1.383.706 2.93 1.18 4.64 1.423l-.142.331-.293-.044c-1.596-.262-3.05-.728-4.364-1.398a13.074 13.074 0 0 1-3.597-2.7ZM7.926 5.567l.101.436.106.498.105.524.102.549.1.575.1.6.143.95.14 1.008.09.703.089.73.129 1.143.125 1.2.08.833.08.859.114 1.336.11 1.394.07.962.103 1.49.029.46-.262.614-.03-.511-.1-1.478-.103-1.423-.107-1.366-.111-1.311-.116-1.256-.08-.806-.08-.781-.084-.756-.128-1.089-.088-.694-.09-.67-.091-.645-.093-.62-.096-.596-.097-.57-.099-.546-.1-.521-.103-.497-.13-.583.135-.075.137-.07Zm32.148 0c.092.045.183.094.273.145l-.079.344-.103.484-.102.51-.1.533-.098.558-.096.583-.095.608-.092.632-.09.658-.09.682-.129 1.07-.084.744-.123 1.162-.08.806-.115 1.256-.111 1.31-.107 1.367-.137 1.91-.098 1.497-.26-.61.097-1.459.105-1.452.073-.936.113-1.355.078-.872.12-1.258.083-.807.085-.782.086-.755.134-1.085.091-.69.094-.666.095-.64.098-.613.15-.872.102-.55.13-.65.135-.61.047-.197Z"></path>
                        </g>
                    </svg>