<svg xmlns="http://www.w3.org/2000/svg" xmlns:xlink="http://www.w3.org/1999/xlink" width="48" height="52" viewBox="0 0 48 52"><defs><path id="a" d="M10.2202858,49.9349257 C10.2990374,41.6089564 10.3384132,36.1692068 10.3384132,33.6156766 C10.3384132,31.0621465 10.176828,26.9540037 9.85365765,21.2912482 L8.2241567,25.1160522 C7.01125281,25.3258129 5.41848163,24.9509062 3.44584315,23.9913321 C1.52651922,23.0576924 0.387279465,22.0785814 0.0281238815,21.053999 L0,20.9685118 L4.72526396,9.16007698 C5.53354862,7.00608415 6.66054046,5.6140616 8.10623945,4.98400935 L16.3835008,1.36290579 L17.7009394,0 C20.0542672,0.521537936 22.154146,0.782865363 24.0005758,0.783982281 C25.8380118,0.785093757 27.9375067,0.523766331 30.2990606,0 L31.6139292,1.36290579 L39.7758433,4.9345938 C41.2783083,5.53937373 42.4446058,6.94786812 43.274736,9.16007698 L48,20.9685118 C47.6754097,22.0241513 46.5267953,23.031758 44.5541569,23.9913321 C42.5815184,24.9509062 40.9887472,25.3258129 39.7758433,25.1160522 L38.1463424,21.2912482 C37.823172,26.7575783 37.6615868,30.8657211 37.6615868,33.6156766 C37.6615868,36.3656321 37.7013266,41.8053818 37.7808063,49.9349257 C37.2455989,50.399355 30.6230725,51 24.000546,51 C17.3780196,51 10.7554932,50.399355 10.2202858,49.9349257 Z"/><path id="c" d="M0.249220183,2.06950883 C1.95105836,2.71789879 3.61305045,3.04209376 5.23519644,3.04209376 C6.85734244,3.04209376 8.43964235,2.71789879 9.98209617,2.06950883 L9.87776609,5.06950883 L0.144890109,5.06950883 L0.249220183,2.06950883 Z"/><path id="d" d="M4.71181036,1.36573446 C5.91134783,1.28858442 6.7910967,1.2005717 7.35105698,1.10169629 C7.79086942,1.02403608 8.29070122,0.854482623 8.73066374,0.695429299 C9.00272804,0.597073804 9.24426153,0.469744215 9.45749419,0.469744215 C10.6740861,0.469744215 11.5442271,0.468225514 12.0679173,0.465188112 L11.9896709,3.46518811 L4.69011966,3.46518811 L4.71181036,1.36573446 Z"/><path id="e" d="M0.306136705,2.41309311 C0.85187547,2.39718482 1.23901844,2.37836439 1.4675656,2.3566318 C2.16964853,2.28987063 2.69237904,2.18182049 3.06862286,2.11538496 C3.5084353,2.03772475 3.88837955,1.93750944 4.32834207,1.77845612 C4.51161247,1.71220101 4.7107674,1.62801107 4.87167856,1.57030454 C4.94963949,1.54234591 5.00133725,1.50910335 5.07093021,1.50910335 C6.28752207,1.50910335 7.15241054,1.52214054 7.66559561,1.54821493 L7.58734919,4.54821493 L0.287797991,4.54821493 L0.306136705,2.41309311 Z"/><path id="f" d="M11.4474442,0.0732238393 C15.6877086,0.0732238393 19.125122,2.4237289 19.125122,5.32322384 C19.125122,8.22271878 15.6877086,10.5732238 11.4474442,10.5732238 C7.20717987,10.5732238 3.76976644,8.22271878 3.76976644,5.32322384 C3.76976644,2.4237289 7.20717987,0.0732238393 11.4474442,0.0732238393 Z M11.4474442,1.57322384 C7.94120504,1.57322384 5.26976644,3.39995492 5.26976644,5.32322384 C5.26976644,7.24649275 7.94120504,9.07322384 11.4474442,9.07322384 C14.9536834,9.07322384 17.625122,7.24649275 17.625122,5.32322384 C17.625122,3.39995492 14.9536834,1.57322384 11.4474442,1.57322384 Z"/><path id="g" d="M2.49644255,5.72317032 C1.97881164,5.72317032 0.15889564,5.062793 0.15889564,3.53594363 C0.15889564,3.29408271 0.533602869,1.8632725 0.533602869,1.78952734 C0.533602869,1.56023064 0.361165997,1.30314817 0.0162922533,1.01827994 L0,1.00490639 L1.10485393,0 C1.65999739,0.352386056 2.22352285,0.355909917 2.7954303,0.0105715817 L2.8127634,0 C3.39061873,0.355945511 3.95992189,0.355945511 4.52067286,0 L5.62552679,1.00490639 C5.26979154,1.29510756 5.09192392,1.55664788 5.09192392,1.78952734 C5.09192392,1.8632725 5.46663115,3.28602068 5.46663115,3.53594363 C5.46663115,5.062793 3.64671515,5.72317032 3.12908424,5.72317032 C3.02286311,5.82317143 2.91742283,5.92691735 2.8127634,6.03440808 C2.66258062,5.88405973 2.55714034,5.78031381 2.49644255,5.72317032 Z"/></defs><g fill="none" fill-rule="evenodd"><g transform="translate(0 .5)"><mask id="b" fill="#fff"><use xlink:href="#a"/></mask><use xlink:href="#a" fill="#FFF"/><path fill="#FFF" stroke="#FAFAFA" stroke-width=".5" d="M40.0188747,-0.242547697 C39.2341643,4.83691473 38.8565157,12.8103844 38.1370899,21.2642338 C36.9870899,10.6993225 32.7870899,4.83691473 23.9870899,4.83691473 C15.1870899,4.83691473 10.9870899,10.6993225 9.84708991,21.2642338 C8.97708991,12.8103844 8.46821715,1.70607564 7.61821715,-0.46001067 L8.64708991,-11.5904043 L39.3370899,-11.5904043 L40.0188747,-0.242547697 Z" mask="url(#b)"/><g fill-opacity=".2" mask="url(#b)"><g transform="translate(7.565 4.805)"><path fill="#000" fill-rule="nonzero" d="M0.2912372,0 L0.346132747,0.226335328 L0.454441985,0.698320373 L0.560775986,1.19605971 L0.665135431,1.71955547 L0.767521003,2.26880979 L0.867933384,2.84382478 L0.966373258,3.44460258 L1.11033611,4.39407922 L1.24986465,5.40153415 L1.34042132,6.10538448 L1.42900889,6.83500827 L1.55819968,7.97777385 L1.68296385,9.17854167 L1.76368186,10.0112806 L1.84243419,10.8698036 L1.95687852,12.2059379 L2.0669039,13.6000985 L2.13780032,14.5617792 L2.24046591,16.052666 L2.33871869,17.6015983 L2.37048939,18.1308092 L2.07101389,18.1485413 L1.97644473,16.6147944 L1.87766163,15.1367133 L1.77466675,13.7143048 L1.66746225,12.3475756 L1.5560503,11.0365325 L1.44043307,9.78118215 L1.36101971,8.97522572 L1.27973894,8.19402665 L1.1965914,7.43758695 L1.06837129,6.34935559 L0.980559634,5.65482306 L0.890883448,4.9850569 L0.799343379,4.34005911 L0.705940068,3.7198317 L0.610674156,3.12437667 L0.513546285,2.55369601 L0.414557097,2.00779173 L0.313707232,1.48666583 L0.210997334,0.990320312 L0.106428043,0.518757175 C0.0888449136,0.442228629 0.0711843367,0.366732765 0.0534463251,0.292269626 L0,0.0719784231 L0.2912372,0 Z"/><path fill="#000" fill-rule="nonzero" d="M30.4841488,0.0719784231 L30.775386,0 L30.8846831,0.459108697 L30.9920046,0.943970623 C31.009727,1.02692716 31.027367,1.11095685 31.0449248,1.19605971 L31.1492842,1.71955547 L31.2516698,2.26880979 C31.2685696,2.36249884 31.2853872,2.45726125 31.3021226,2.55309707 L31.4015486,3.1409932 L31.4990025,3.75465321 L31.5944849,4.39407922 L31.6879965,5.05927336 L31.7795379,5.75023777 L31.9131577,6.83500827 L31.9997768,7.59040765 L32.0844282,8.37158474 L32.1671126,9.17854167 L32.2874525,10.4373189 L32.3652222,11.3087348 L32.4781933,12.6642104 L32.5510527,13.6000985 L32.6566614,15.0522924 L32.7906067,17.0788376 L32.8546382,18.1308092 L32.5551627,18.1485413 L32.4925849,17.1198586 L32.3952062,15.6232215 L32.2588155,13.7143048 L32.151611,12.3475756 L32.0401991,11.0365325 L31.9245818,9.78118215 L31.8451685,8.97522572 L31.7225472,7.81271175 L31.6384666,7.06865248 L31.5088473,5.99899365 L31.4201033,5.31684406 L31.3294951,4.65946183 L31.2370234,4.02684899 L31.1426887,3.41900751 L31.0464917,2.83593942 L30.9484331,2.2776467 L30.8485135,1.74413136 L30.7467335,1.2353954 L30.6430938,0.751440821 L30.5375951,0.292269626 L30.4841488,0.0719784231 Z" transform="matrix(-1 0 0 1 63.339 0)"/></g></g><g mask="url(#b)"><g transform="translate(-3.214 18.403)"><g transform="translate(42.093 1.015)"><use xlink:href="#c" fill="#022D8C" transform="rotate(-27 5.063 3.57)"/><use xlink:href="#d" fill="#8E0A22" transform="rotate(-27 8.379 1.965)"/></g><path fill="#022D8C" d="M2.45003927,3.08461383 C4.15187745,3.73300378 5.81386954,4.05719876 7.43601553,4.05719876 C9.05816153,4.05719876 10.6404614,3.73300378 12.1829153,3.08461383 L12.0785852,6.08461383 L2.3457092,6.08461383 L2.45003927,3.08461383 Z" transform="scale(-1 1) rotate(-27 0 34.843)"/><use xlink:href="#e" fill="#8E0A22" transform="scale(-1 1) rotate(-27 0 19.593)"/></g></g><g mask="url(#b)"><g transform="translate(12.578 -4.476)"><path fill="#B5B5B5" d="M4.67233268,5.97394768 L18.1723327,5.97394768 C17.197235,8.69721428 14.947235,10.0588476 11.4223327,10.0588476 C7.89743034,10.0588476 5.64743034,8.69721428 4.67233268,5.97394768 Z"/><g fill="#CBCBCB" fill-rule="nonzero" transform="translate(3.72 2.105)"><path d="M15.4055786,0 L15.4055786,3.75 C12.8379822,4.47019064 10.2703857,4.83028596 7.70278931,4.83028596 C5.13519287,4.83028596 2.56759644,4.47019064 0,3.75 L0,0 L15.4055786,0 Z M13.68,1.72425841 L1.725,1.72425841 L1.725,2.41050841 L2.01905938,2.47818477 C3.74393052,2.85851101 5.4659641,3.06560044 7.18662932,3.10010987 L7.70278931,3.10528596 C9.59523617,3.10528596 11.489161,2.89654364 13.3865192,2.47818477 L13.68,2.41050841 L13.68,1.72425841 Z"/><path d="M11.7027893,0.120758411 L11.7027893,3.87075841 C9.13519287,4.59094905 6.27038574,4.59094905 3.70278931,3.87075841 L3.70278931,0.120758411 L11.7027893,0.120758411 Z M9.97721069,1.84501682 L5.42778931,1.84501682 L5.42778931,2.53126682 L5.72184869,2.59894318 C7.44671982,2.97926942 5.4659641,3.06560044 7.18662932,3.10010987 L7.70278931,3.10528596 C9.59523617,3.10528596 7.78637168,3.01730205 9.68372992,2.59894318 L9.97721069,2.53126682 L9.97721069,1.84501682 Z"/></g><polygon fill="#F0F0F0" points="4.424 6.239 5.678 11.94 2.121 13.191" transform="rotate(-114 3.9 9.715)"/><polygon fill="#F0F0F0" points="19.532 6.239 20.786 11.94 17.229 13.191" transform="scale(1 -1) rotate(66 33.967 0)"/><use xlink:href="#f" fill="#FFF" fill-rule="nonzero"/><path fill="#F0F0F0" fill-rule="nonzero" d="M11.4223327,0 C7.14536708,0 3.66965491,2.37669376 3.66965491,5.325 C3.66965491,8.27330624 7.14536708,10.65 11.4223327,10.65 C15.6992983,10.65 19.1750105,8.27330624 19.1750105,5.325 C19.1750105,2.37669376 15.6992983,0 11.4223327,0 Z M11.4223327,0.15 C15.6258958,0.15 19.0250105,2.47431636 19.0250105,5.325 C19.0250105,8.17568364 15.6258958,10.5 11.4223327,10.5 C7.21876959,10.5 3.81965491,8.17568364 3.81965491,5.325 C3.81965491,2.47431636 7.21876959,0.15 11.4223327,0.15 Z"/></g></g></g><g transform="translate(27.964 11.99)"><g transform="translate(.258 .21)"><mask id="h" fill="#fff"><use xlink:href="#g"/></mask><use xlink:href="#g" fill="#235CAE"/><rect width="1" height="2.756" x="1.043" y="3.521" fill="#85233B" mask="url(#h)"/><rect width="1" height="2.756" x="2.464" y="3.521" fill="#85233B" mask="url(#h)"/><rect width="1" height="2.756" x="3.884" y="3.521" fill="#85233B" mask="url(#h)"/><rect width="2.819" height="2.743" fill="#D8D8D8" mask="url(#h)"/><rect width="2.819" height="2.743" x="2.819" fill="#D3AB29" mask="url(#h)"/></g><path fill="#D3AB29" fill-rule="nonzero" d="M6.14198822,1.22219606 L4.79823309,0 L4.68153449,0.0740762779 C4.17920954,0.392934948 3.68561743,0.392934948 3.16593093,0.0728200986 L3.07125185,0.0144999762 L2.95896152,0.0829866725 C2.44586657,0.392809881 1.95734567,0.389755042 1.4600303,0.0740762779 L1.34333169,0 L0,1.22181093 L0.16005073,1.35318909 C0.470397452,1.6095388 0.617415157,1.82872437 0.617415157,2.00020623 C0.617415157,2.03988268 0.610484994,2.09038581 0.596235044,2.1540649 L0.562377083,2.28431037 L0.392857894,2.83327368 L0.344798341,3.01006306 C0.300384652,3.1860055 0.267618338,3.47059681 0.246499398,3.86383701 C0.43490007,5.08383952 1.24551057,5.82785136 2.67833089,6.09587252 L3.07117,6.48778767 L3.46284178,6.09587252 C5.00621873,5.85434232 5.81822375,5.07125899 5.89885686,3.74662252 C5.91349129,3.50620877 5.86138269,3.26053053 5.79116843,2.98811897 L5.76761245,2.90007137 L5.67316662,2.58640576 L5.57879128,2.28292853 L5.56178591,2.22129334 C5.53646992,2.12525753 5.52414963,2.05310817 5.52414963,2.00020623 C5.52414963,1.82577238 5.67622782,1.60215339 5.99740219,1.34014624 L6.14198822,1.22219606 Z M3.03600336,0.423066073 L3.07029599,0.403231367 L3.08171515,0.410205939 C3.61247814,0.700407281 4.14814054,0.718493372 4.66854774,0.463737257 L4.75487488,0.418043096 L5.62939257,1.21239063 L5.59017337,1.24869411 C5.31716472,1.50901405 5.17573621,1.75743533 5.17573621,2.00020623 C5.17573621,2.08510227 5.19211783,2.18103537 5.22394912,2.30177232 L5.26864594,2.45683161 L5.40678394,2.89999348 L5.45301466,3.06739359 C5.51678784,3.31484238 5.55044344,3.5350404 5.55044344,3.74662252 C5.55044344,4.87599401 4.24626622,5.76927444 3.38710324,5.76927444 L3.07029599,6.00425923 L2.75446155,5.76927444 C1.89529857,5.76927444 0.591121349,4.87599401 0.591121349,3.74662252 C0.591121349,3.54115596 0.622935913,3.3271608 0.683516052,3.08716867 L0.747114829,2.85835697 L0.872600432,2.45787393 L0.917367525,2.30270196 C0.949446954,2.18103537 0.965828578,2.08510227 0.965828578,2.00020623 L0.961716252,1.92825852 C0.937071323,1.71188824 0.801916049,1.49061399 0.563303529,1.2601308 L0.511780106,1.21239063 L1.3857171,0.417494513 L1.48306429,0.468619309 C1.99242895,0.714435091 2.51641176,0.699128032 3.03600336,0.423066073 Z"/><rect width="5.118" height="1.097" x=".512" y="2.635" fill="#D3AB29"/></g></g></svg>