 <!--?xml version="1.0" encoding="UTF-8"?-->
<svg height="100%" viewBox="0 0 138 10" version="1.1" xmlns="http://www.w3.org/2000/svg" xmlns:xlink="http://www.w3.org/1999/xlink" aria-hidden="true" focusable="false">
    <title>Bet-Builder-Plus-en-US</title>
    <g id="Bet-Builder-Plus-en-US" stroke="none" stroke-width="1" fill="none" fill-rule="evenodd">
        <g id="{word-1}" transform="translate(0.208000, 0.160000)" fill="#FFFFFF" fill-rule="nonzero">
            <path d="M4.147,0 C2.314,0 0.962,1.157 0.962,2.73 C0.962,3.9 1.417,4.459 2.964,5.239 C3.783,5.642 3.978,5.85 3.978,6.227 C3.978,6.76 3.51,7.111 2.821,7.111 C2.223,7.111 1.768,6.929 0.988,6.396 L0,8.06 C1.157,8.775 1.885,9.009 2.925,9.009 C4.862,9.009 6.24,7.787 6.24,6.045 C6.24,4.901 5.746,4.29 4.316,3.614 C3.432,3.198 3.211,2.99 3.211,2.574 C3.211,2.106 3.588,1.82 4.186,1.82 C4.654,1.82 5.122,2.015 5.707,2.457 L6.669,0.793 C5.824,0.247 5.031,0 4.147,0 Z" id="Path"></path>
            <path d="M12.675,7.384 L13.039,8.84 L15.34,8.84 L13.247,0.169 L10.777,0.169 L6.474,8.84 L8.918,8.84 L9.581,7.384 L12.675,7.384 Z M11.258,3.731 C11.388,3.432 11.505,3.159 11.648,2.704 C11.661,2.847 11.687,2.951 11.7,3.016 C11.739,3.276 11.752,3.354 11.895,4.017 L12.259,5.668 L10.387,5.668 L11.258,3.731 Z" id="Shape"></path>
            <path d="M24.479,0.169 L22.438,4.186 C22.282,4.485 22.087,4.966 21.944,5.369 C21.84,4.537 21.723,3.822 21.554,3.094 L20.904,0.169 L18.733,0.169 L15.99,8.84 L18.252,8.84 L19.37,5.083 C19.513,4.576 19.617,4.16 19.825,3.094 C19.942,4.225 20.007,4.667 20.189,5.486 L20.93,8.84 L22.087,8.84 L24.219,4.667 C24.453,4.186 24.622,3.796 24.83,3.237 C24.752,3.874 24.726,4.199 24.726,4.68 C24.726,4.771 24.726,4.862 24.726,4.953 L24.83,8.84 L27.027,8.84 L26.754,0.169 L24.479,0.169 Z" id="Path"></path>
            <polygon id="Path" points="29.523 0.169 28.457 8.84 33.306 8.84 33.54 6.929 30.888 6.929 31.07 5.421 33.54 5.421 33.774 3.523 31.304 3.523 31.486 2.08 34.034 2.08 34.268 0.169"></polygon>
            <path d="M42.276,5.759 L44.291,5.759 C44.096,6.578 43.355,7.111 42.406,7.111 C41.08,7.111 40.131,6.11 40.131,4.706 C40.131,3.081 41.184,1.859 42.562,1.859 C43.511,1.859 44.161,2.327 44.59,3.276 L46.501,2.535 C46.15,1.703 45.929,1.404 45.383,0.936 C44.642,0.312 43.719,0 42.614,0 C39.871,0 37.869,2.002 37.869,4.745 C37.869,7.267 39.637,9.009 42.185,9.009 C44.07,9.009 45.617,8.034 46.228,6.422 C46.514,5.694 46.631,4.979 46.657,4.017 L42.484,4.017 L42.276,5.759 Z" id="Path"></path>
            <path d="M52.676,7.384 L53.04,8.84 L55.341,8.84 L53.248,0.169 L50.778,0.169 L46.475,8.84 L48.919,8.84 L49.582,7.384 L52.676,7.384 Z M51.259,3.731 C51.389,3.432 51.506,3.159 51.649,2.704 C51.662,2.847 51.688,2.951 51.701,3.016 C51.74,3.276 51.753,3.354 51.896,4.017 L52.26,5.668 L50.388,5.668 L51.259,3.731 Z" id="Shape"></path>
            <path d="M64.48,0.169 L62.439,4.186 C62.283,4.485 62.088,4.966 61.945,5.369 C61.841,4.537 61.724,3.822 61.555,3.094 L60.905,0.169 L58.734,0.169 L55.991,8.84 L58.253,8.84 L59.371,5.083 C59.514,4.576 59.618,4.16 59.826,3.094 C59.943,4.225 60.008,4.667 60.19,5.486 L60.931,8.84 L62.088,8.84 L64.22,4.667 C64.454,4.186 64.623,3.796 64.831,3.237 C64.753,3.874 64.727,4.199 64.727,4.68 C64.727,4.771 64.727,4.862 64.727,4.953 L64.831,8.84 L67.028,8.84 L66.755,0.169 L64.48,0.169 Z" id="Path"></path>
            <polygon id="Path" points="69.524 0.169 68.458 8.84 73.307 8.84 73.541 6.929 70.889 6.929 71.071 5.421 73.541 5.421 73.775 3.523 71.305 3.523 71.487 2.08 74.035 2.08 74.269 0.169"></polygon>
        </g>
        <g id="{word-2}" transform="translate(78.546000, 0.329000)" fill="#28FFBB" fill-rule="nonzero">
            <path d="M0,8.671 L2.197,8.671 L2.548,5.798 L3.523,5.798 C4.901,5.798 5.941,5.447 6.539,4.797 C7.124,4.16 7.215,3.38 7.215,2.756 C7.215,2.184 7.137,1.404 6.487,0.767 C5.837,0.13 4.953,0 3.965,0 L1.066,0 L0,8.671 Z M3.653,1.82 C3.965,1.82 4.433,1.807 4.719,2.106 C4.849,2.236 4.966,2.47 4.966,2.847 C4.966,3.042 4.94,3.367 4.693,3.614 C4.355,3.952 3.783,3.978 3.471,3.978 L2.782,3.978 L3.042,1.82 L3.653,1.82 Z" id="Shape"></path>
            <path d="M12.285,7.215 L12.649,8.671 L14.95,8.671 L12.857,0 L10.387,0 L6.084,8.671 L8.528,8.671 L9.191,7.215 L12.285,7.215 Z M10.868,3.562 C10.998,3.263 11.115,2.99 11.258,2.535 C11.271,2.678 11.297,2.782 11.31,2.847 C11.349,3.107 11.362,3.185 11.505,3.848 L11.869,5.499 L9.997,5.499 L10.868,3.562 Z" id="Shape"></path>
            <path d="M22.113,4.615 C22.581,4.121 22.815,3.471 22.815,2.691 C22.815,1.911 22.568,1.196 22.152,0.754 C21.658,0.234 20.93,0 19.747,0 L16.926,0 L15.86,8.671 L18.057,8.671 L18.473,5.226 L20.449,8.671 L22.997,8.671 L20.969,5.304 C21.567,5.096 21.801,4.953 22.113,4.615 Z M19.318,1.742 C20.241,1.742 20.553,2.002 20.553,2.756 C20.553,3.575 20.072,3.965 19.019,3.965 L18.629,3.965 L18.902,1.742 L19.318,1.742 Z" id="Shape"></path>
            <polygon id="Path" points="24.986 0 23.92 8.671 28.873 8.671 29.12 6.76 26.351 6.76 27.183 0"></polygon>
            <path d="M35.516,7.215 L35.88,8.671 L38.181,8.671 L36.088,0 L33.618,0 L29.315,8.671 L31.759,8.671 L32.422,7.215 L35.516,7.215 Z M34.099,3.562 C34.229,3.263 34.346,2.99 34.489,2.535 C34.502,2.678 34.528,2.782 34.541,2.847 C34.58,3.107 34.593,3.185 34.736,3.848 L35.1,5.499 L33.228,5.499 L34.099,3.562 Z" id="Shape"></path>
            <path d="M46.527,0 L43.862,0 L42.367,2.158 C42.172,2.444 42.055,2.626 41.938,2.847 C41.899,2.73 41.873,2.626 41.847,2.561 C41.756,2.275 41.73,2.223 41.379,1.391 L40.781,0 L38.35,0 L40.56,4.81 L40.079,8.671 L42.276,8.671 L42.744,4.875 L46.527,0 Z" id="Path"></path>
        </g>
        <path d="M134.207996,0.345426558 L134.101564,0.950534846 L133.754,3.68842656 L137.167725,3.68909073 L136.913526,5.61364557 L133.511,5.61342656 L133.082857,8.99918015 L130.937141,9 L131.365,5.61342656 L128,5.61364557 L128.254199,3.68909073 L131.609,3.68842656 L131.955848,0.951354693 L132.049171,0.345426558 L134.207996,0.345426558 Z" id="Combined-Shape" fill="#28FFBB" fill-rule="nonzero"></path>
    </g>
</svg>